
<svg xmlns="http://www.w3.org/2000/svg" viewBox="0 0 300 300">

         
         
  <g
     transform="matrix(1.3333333,0,0,-1.3333333,0,288)"
     id="g10">
     
     <g
       id="g12"><g
         clip-path="url(#clipPath18)"
         id="g14"><g
           transform="translate(164.6284,95.7268)"
           id="g20"><path
             id="path22"
             style="fill:#000000;fill-opacity:1;fill-rule:nonzero;stroke:none"
             d="M 0,0 -15.88,-15.479 H -97.377 L -113.257,0 -140.424,-26.482 c 1.35,-2.914 2.84,-5.75 4.475,-8.49 1.028,-1.722 2.112,-3.406 3.247,-5.054 H 19.446 c 1.134,1.648 2.218,3.332 3.246,5.054 1.636,2.74 3.125,5.576 4.475,8.49 z" /></g><g
           transform="translate(45.3331,40.2215)"
           id="g24"><path
             id="path26"
             style="fill:#000000;fill-opacity:1;fill-rule:nonzero;stroke:none"
             d="m 0,0 c 5.488,-5.076 11.589,-9.497 18.186,-13.132 6.809,-3.751 14.141,-6.668 21.86,-8.612 7.24,-1.824 14.816,-2.802 22.621,-2.802 7.805,0 15.381,0.978 22.62,2.802 7.72,1.944 15.051,4.861 21.86,8.612 6.598,3.635 12.699,8.056 18.187,13.132 z" /></g><g
           transform="translate(107.9997,200.3249)"
           id="g28"><path
             id="path30"
             style="fill:#000000;fill-opacity:1;fill-rule:nonzero;stroke:none"
             d="M 0,0 C -24.194,0 -46.204,-9.318 -62.667,-24.546 H 0 62.667 C 46.204,-9.318 24.194,0 0,0" /></g><g
           transform="translate(73.3302,135.7527)"
           id="g32"><path
             id="path34"
             style="fill:#000000;fill-opacity:1;fill-rule:nonzero;stroke:none"
             d="M 0,0 18.526,18.059 34.669,2.322 50.814,18.059 c 0,0 13.661,-13.317 18.526,-18.059 h 53.403 c -2.78,8.831 -6.858,17.082 -11.999,24.546 H 50.55 c -3.668,3.576 -15.881,15.48 -15.881,15.48 L 18.79,24.546 H -41.404 C -46.546,17.082 -50.623,8.831 -53.404,0 Z" /></g><g
           transform="translate(199.4881,120.2733)"
           id="g36"><path
             id="path38"
             style="fill:#000000;fill-opacity:1;fill-rule:nonzero;stroke:none"
             d="M 0,0 H -47.33 L -63.21,15.479 -79.09,0 h -24.796 L -119.767,15.479 -135.646,0 h -47.33 c -0.535,-4.018 -0.837,-8.109 -0.837,-12.273 0,-4.164 0.302,-8.255 0.837,-12.273 h 28.503 l 18.526,18.058 18.526,-18.058 h 51.866 l 18.525,18.058 18.526,-18.058 H 0 c 0.534,4.018 0.837,8.109 0.837,12.273 C 0.837,-8.109 0.534,-4.018 0,0" /></g><g
           transform="translate(108,138.0751)"
           id="g40"><path
             id="path42"
             style="fill:#000000;fill-opacity:1;fill-rule:nonzero;stroke:none"
             d="M 0,0 -19.315,18.852 0,37.703 19.315,18.852 Z" /></g></g></g></g></svg>